<svg width="430.6" height="69.13" xmlns="http://www.w3.org/2000/svg">
  <path class="st0" d="M422.5 34.45c0-6.98-4.49-11.84-10.89-11.84-6.48 0-10.96 4.94-11.04 11.84.08 6.98 4.49 11.92 11.04 11.92 6.41 0 10.89-4.94 10.89-11.92m8.12 16.58c0 11.12-7.76 18.1-19.65 18.1-5.91 0-11.11-1.89-15.73-5.09l3.49-6.03c3.56 2.69 7.26 4.21 11.89 4.21 7.19 0 11.89-4.29 11.89-10.97v-4.87c-2.56 4.21-6.83 6.54-12.53 6.54-10.25 0-17.08-7.56-17.08-18.67 0-10.9 6.76-18.32 16.8-18.39 5.84-.07 10.18 2.32 12.82 6.54v-6.26h8.11v34.89zM385.4 30.75v24.06h-8.18V33.07c0-5.81-3.42-9.38-9.11-9.38-6.27.07-10.18 4.51-10.75 10.54V54.8h-8.18V16.14h8.18v7.41c2.71-5.38 7.55-7.71 13.95-7.71 8.82.01 14.09 5.68 14.09 14.91M329 16.14h8.11V54.8H329zm8.83-11.05c0 2.91-2.06 5.01-4.77 5.01s-4.77-2.11-4.77-5.01c0-2.98 2.06-5.09 4.77-5.09 2.71.01 4.77 2.11 4.77 5.09M308.3.01h8.19v54.8h-8.19zM288.1 23.84c2.56-5.23 7.12-7.99 13.1-7.99v7.99c-7.62-.43-12.46 4.14-13.1 10.76v20.2h-8.18V16.14h8.18zM264.2 32.57c-.28-6.25-4.34-10.03-10.53-10.03-5.98 0-10.18 3.85-11.11 10.03zm7.12 6.1H242.7c1.29 5.96 5.77 9.67 11.75 9.67 4.13 0 7.9-1.6 10.68-4.51l4.34 4.73c-3.7 4.14-9.11 6.54-15.66 6.54-11.67 0-19.36-7.92-19.36-19.55 0-11.7 7.9-19.62 19.14-19.7 13.32 0 18.72 8.87 17.73 22.82M192.36 54.54h-8.4l-13.8-38.44h8.3l9.8 30.2 9.5-30.2h8.4l9.5 30.2 9.6-30.2h8.3l-13.7 38.44h-8.4l-9.6-28.47zM135.9 34.38c0 7.67 4.89 12.88 11.89 12.88 6.93 0 11.81-5.21 11.81-12.88 0-7.6-4.89-12.81-11.81-12.81-7.01.01-11.89 5.22-11.89 12.81m32.09-.07c0 11.91-8.24 20.1-20.2 20.1-12.03 0-20.28-8.19-20.28-20.1 0-11.99 8.24-20.11 20.28-20.11 11.96.01 20.2 8.12 20.2 20.11M113.7 35.64c0-6.8-4.51-11.82-10.9-11.82s-10.9 4.95-10.9 11.82c0 7.08 4.5 11.96 10.9 11.96s10.9-4.96 10.9-11.96m7.81.27c0 10.92-6.73 18.41-16.95 18.41-5.72 0-10.03-2.33-12.65-6.6v21.39h-7.74V17.5h7.74v6.32c2.63-4.26 6.93-6.6 12.52-6.6 10.15 0 17.08 7.56 17.08 18.69"/>
  <path class="st1" d="M20.71 47.98V34.65c0-7.45 5.92-13.5 13.22-13.5 7.21 0 13.05 5.97 13.05 13.33 0 7.45-5.92 13.5-13.22 13.5zm41.22-13.6c0 15.93-12.65 28.85-28.26 28.85H20.71V52.08h13.03c9.54 0 17.26-7.89 17.26-17.63 0-9.61-7.63-17.41-17.05-17.41-9.54 0-17.26 7.89-17.26 17.63v28.55H5.77V34.74c0-15.93 12.65-28.85 28.26-28.85 15.4 0 27.9 12.76 27.9 28.49zM34.06.01C15.25.01 0 15.58 0 34.78v34.34h33.63c18.81 0 34.06-15.57 34.06-34.77C67.69 15.38 52.63.01 34.06.01" fill="#e96335"/>
</svg>

