<svg viewBox="0 0 512 512" xmlns="http://www.w3.org/2000/svg">
    <path d="M333.287 358.953c2.521 2.025-.294 5.39-4.576 3.24-16.23-8.187-30.392-17.028-45.958-29.343a97.056 97.056 0 01-26.782 3.756c-54.597 0-98.844-45.066-98.844-100.683 0-55.622 44.243-100.7 98.844-100.7 54.583 0 98.827 45.078 98.827 100.7 0 29.256-12.254 55.578-31.82 73.99-6.343 28.702 5.543 45.24 10.313 49.04M255.965 63.627C164.327 63.628 89.782 137.898 87 230.6c-.082 1.63-.129 3.347-.129 5.339 0 116.57 5.578 192.658 6.972 207.264.568 5.787 4.597 7.328 7.18 1.28 7.29-19.058 16.09-50.325 46.768-66.83 3.09-1.655 8.524-2.118 14.299 1.6.05.017.089.029.142.075 26.836 18.262 59.053 28.91 93.73 28.91 93.398 0 169.106-77.165 169.106-172.305 0-95.173-75.708-172.311-169.107-172.311" fill="#f49e00"/>
</svg>
